# xmcd
#
# Track frame offsets:
#	150
#	11400
#	23775
#	40050
#	59325
#	74100
#	88325
#	102525
#	116700
#	130500
#	142350
#	155250
#	171000
#	184650
#
# Disc length: 2643 seconds
#
# Revision: 0
# Processed by: cddbd v1.5.2PL0 Copyright (c) Steve Scherf et al.
# Submitted via: EasyCDDAExtractor 16.0.6.1
#
DISCID=c60a510e
DTITLE=Συλλογικός δίσκος - Νέο κύμα-Λύρα
DYEAR=1996
DGENRE=Νέο κύμα
TTITLE0=Αρλέτα - Μιά φορά θυμάμαι [Γιάννη Σπανού-Γιώργου Παπαστεφάνου]
TTITLE1=Αστεριάδη Πόπη - Πάει κι αυτή η Κυριακή [Λάκη Παππά-Γιάννη Αργύρη]
TTITLE2=Αστεριάδη Πόπη - Σεπτέμβρη μήνα μου [Γιάννη Γκούμα-Δημήτρη Χριστοδούλο
TTITLE2=υ]
TTITLE3=Αστεριάδη Πόπη - Σκληρό μου αγόρι [Νίκου Μαμαγκάκη-Ντίνου Δημόπουλου]
TTITLE4=Βιολάρης Μιχάλης - Το δελφινοκόριτσο [Λίνου Κόκοτου-Οδυσσέα Ελύτη]
TTITLE5=Βιολάρης Μιχάλης - Τρεις νέοι [Γιάννη Σπανού-Αιμιλίας Δάφνη]
TTITLE6=Βιολάρης Μιχάλης - Τι Λωζάνη, τι Κοζάνη [Γιώργου Κριμιζάκη-Γιάννη Κακο
TTITLE6=υλίδη]
TTITLE7=Αστεριάδη Πόπη - Η μικρή Νανώ [Νίκου Χουλιάρα]
TTITLE8=Πουλόπουλος Γιάννης - Θά 'θελα, νά 'χα [Γιάννη Πουλόπουλου]
TTITLE9=Βιολάρης Μιχάλης - Ήλιε μου, ήλιε [Γιάννη Σπανού-Κώστα Κωτούλα]
TTITLE10=Ζωγράφος Γιώργος - Μικρό παιδί [Λίνου Κόκοτου-Αργύρη Βεργόπουλου]
TTITLE11=Παππάς Λάκης - Κι ύστερα μού μιλάς [Λάκη Παππά-Δημήτρη Ιατρόπουλου]
TTITLE12=Κουμιώτη Ρένα - Κόρη του γιαλού [Λίνου Κόκοτου-Άκου Δασκαλόπουλου]
TTITLE13=Χωματά Καίτη - Μέσ' στο δειλινό [Γεράσιμου Λαβράνου-Κώστα Κωτούλα]
EXTD=
EXTT0=
EXTT1=
EXTT2=
EXTT3=
EXTT4=
EXTT5=
EXTT6=
EXTT7=
EXTT8=
EXTT9=
EXTT10=
EXTT11=
EXTT12=
EXTT13=
PLAYORDER=
